<?xml version="1.0" encoding="UTF-8"?>
<svg id="Layer_1" data-name="Layer 1" xmlns="http://www.w3.org/2000/svg" version="1.1" viewBox="0 0 15.1 15.1">
  <defs>
    <style>
      .cls-1 {
        fill: none;
        stroke: #456597;
        stroke-miterlimit: 10;
      }
    </style>
  </defs>
  <path class="cls-1" d="M14.6,7.6v2.5c0,1.2-.9,2.1-2.1,2.1h-2.2"/>
  <path class="cls-1" d="M14.6,7.6c0-3.9-3.2-7.1-7.1-7.1S.5,3.7.5,7.6s3.2,7.1,7.1,7.1,1.5-.1,2.1-.3"/>
  <path class="cls-1" d="M10.2,8.4l-1,1c-.6-.4-1.2-.8-1.8-1.4-.6-.6-1.1-1.2-1.4-1.8l1-1-2.2-2.2-1.1,1.1c-.9,1,0,3.4,2.1,5.5,2.1,2.1,4.6,3.1,5.5,2.1l1.1-1.1-2.2-2.2Z"/>
  <path class="cls-1" d="M8.3,3c.9,0,1.9.3,2.6,1,.7.7,1.1,1.6,1,2.6"/>
  <path class="cls-1" d="M12,6.6c0-.9-.3-1.9-1-2.6-.7-.7-1.6-1.1-2.6-1"/>
  <path class="cls-1" d="M8.4,4.7c.5,0,.9.2,1.3.5.4.4.5.8.5,1.3"/>
</svg>